<svg version="1.1" xmlns="http://www.w3.org/2000/svg" xmlns:xlink="http://www.w3.org/1999/xlink">

    <symbol viewBox="0 0 61 60" id="land-washing-techs-1">
        <path d="M30.4519 53.75C27.2115 53.75 24.1506 53.1258 21.2694 51.8775C18.3877 50.6292 15.8717 48.9296 13.7212 46.7788C11.5704 44.6283 9.87083 42.1083 8.6225 39.2188C7.37417 36.3292 6.75 33.2563 6.75 30C6.75 26.7021 7.39104 23.6083 8.67313 20.7188C9.95521 17.8292 11.6965 15.3156 13.8969 13.1781C16.0969 11.0402 18.6706 9.35104 21.6181 8.11063C24.5652 6.87021 27.7085 6.25 31.0481 6.25C34.1731 6.25 37.1346 6.78292 39.9325 7.84875C42.7308 8.91458 45.1883 10.3898 47.305 12.2744C49.4221 14.159 51.1087 16.3985 52.365 18.9931C53.6217 21.5873 54.25 24.4004 54.25 27.4325C54.25 31.7596 52.964 35.1442 50.3919 37.5863C47.8198 40.0288 44.5225 41.25 40.5 41.25H35.9712C35.2596 41.25 34.6906 41.4823 34.2644 41.9469C33.8381 42.4119 33.625 42.9617 33.625 43.5963C33.625 44.3688 33.9375 45.1717 34.5625 46.005C35.1875 46.8383 35.5 47.795 35.5 48.875C35.5 50.5254 35.0433 51.7506 34.13 52.5506C33.2163 53.3502 31.9902 53.75 30.4519 53.75ZM16.75 31.875C17.6408 31.875 18.3844 31.5769 18.9806 30.9806C19.5769 30.3844 19.875 29.6408 19.875 28.75C19.875 27.8592 19.5769 27.1156 18.9806 26.5194C18.3844 25.9231 17.6408 25.625 16.75 25.625C15.8592 25.625 15.1156 25.9231 14.5194 26.5194C13.9231 27.1156 13.625 27.8592 13.625 28.75C13.625 29.6408 13.9231 30.3844 14.5194 30.9806C15.1156 31.5769 15.8592 31.875 16.75 31.875ZM24.25 21.875C25.1408 21.875 25.8844 21.5769 26.4806 20.9806C27.0769 20.3844 27.375 19.6408 27.375 18.75C27.375 17.8592 27.0769 17.1156 26.4806 16.5194C25.8844 15.9231 25.1408 15.625 24.25 15.625C23.3592 15.625 22.6156 15.9231 22.0194 16.5194C21.4231 17.1156 21.125 17.8592 21.125 18.75C21.125 19.6408 21.4231 20.3844 22.0194 20.9806C22.6156 21.5769 23.3592 21.875 24.25 21.875ZM36.75 21.875C37.6408 21.875 38.3844 21.5769 38.9806 20.9806C39.5769 20.3844 39.875 19.6408 39.875 18.75C39.875 17.8592 39.5769 17.1156 38.9806 16.5194C38.3844 15.9231 37.6408 15.625 36.75 15.625C35.8592 15.625 35.1156 15.9231 34.5194 16.5194C33.9231 17.1156 33.625 17.8592 33.625 18.75C33.625 19.6408 33.9231 20.3844 34.5194 20.9806C35.1156 21.5769 35.8592 21.875 36.75 21.875ZM44.25 31.875C45.1408 31.875 45.8844 31.5769 46.4806 30.9806C47.0769 30.3844 47.375 29.6408 47.375 28.75C47.375 27.8592 47.0769 27.1156 46.4806 26.5194C45.8844 25.9231 45.1408 25.625 44.25 25.625C43.3592 25.625 42.6156 25.9231 42.0194 26.5194C41.4231 27.1156 41.125 27.8592 41.125 28.75C41.125 29.6408 41.4231 30.3844 42.0194 30.9806C42.6156 31.5769 43.3592 31.875 44.25 31.875ZM30.4519 50C30.859 50 31.1771 49.8998 31.4062 49.6994C31.6354 49.499 31.75 49.2242 31.75 48.875C31.75 48.2917 31.4375 47.6362 30.8125 46.9088C30.1875 46.1813 29.875 45.0419 29.875 43.4906C29.875 41.7085 30.4792 40.2646 31.6875 39.1588C32.8958 38.0529 34.375 37.5 36.125 37.5H40.5C43.4425 37.5 45.8448 36.6379 47.7069 34.9137C49.569 33.1892 50.5 30.6954 50.5 27.4325C50.5 22.375 48.5608 18.2052 44.6825 14.9231C40.8046 11.641 36.2598 10 31.0481 10C25.3335 10 20.4802 11.9375 16.4881 15.8125C12.496 19.6875 10.5 24.4167 10.5 30C10.5 35.5417 12.4479 40.2604 16.3438 44.1562C20.2396 48.0521 24.9423 50 30.4519 50Z" />
    </symbol>

    <symbol viewBox="0 0 61 60" id="land-washing-techs-2">
        <path d="M33.2412 50.735C33.0579 50.8925 32.8629 51.0138 32.6562 51.0988C32.4496 51.1834 32.2235 51.2256 31.9781 51.2256C31.7331 51.2256 31.484 51.1769 31.2306 51.0794C30.9777 50.9815 30.7581 50.8396 30.5719 50.6538C29.056 48.9967 27.904 47.2619 27.1156 45.4494C26.3269 43.6369 25.9325 41.7192 25.9325 39.6963C25.9325 38.2288 26.1456 36.685 26.5719 35.065C26.9985 33.4446 27.7502 31.3444 28.8269 28.7644C29.7373 26.4694 30.38 24.6804 30.755 23.3975C31.13 22.1146 31.3175 20.9263 31.3175 19.8325C31.3175 18.4025 31.005 17.0529 30.38 15.7838C29.755 14.5146 28.7758 13.2469 27.4425 11.9806C27.2592 11.7915 27.114 11.5709 27.0069 11.3188C26.8998 11.0667 26.8463 10.8146 26.8463 10.5625C26.8463 10.3254 26.8888 10.1036 26.9738 9.8969C27.0588 9.69023 27.1798 9.49377 27.3369 9.30752C27.5256 9.12169 27.7396 8.97835 27.9788 8.87752C28.2175 8.77669 28.4642 8.72627 28.7188 8.72627C28.9738 8.72627 29.2077 8.77565 29.4206 8.8744C29.634 8.97315 29.8319 9.10481 30.0144 9.2694C31.6394 10.8015 32.8877 12.449 33.7594 14.2119C34.6315 15.9744 35.0675 17.8454 35.0675 19.825C35.0675 21.2109 34.8612 22.6659 34.4487 24.19C34.0363 25.7146 33.3194 27.7042 32.2981 30.1588C31.2885 32.5784 30.6002 34.4629 30.2331 35.8125C29.866 37.1617 29.6825 38.4404 29.6825 39.6488C29.6825 41.1354 29.9806 42.5688 30.5769 43.9488C31.1731 45.3292 32.0962 46.6988 33.3462 48.0575C33.5033 48.2463 33.6292 48.4506 33.7238 48.6706C33.8183 48.8906 33.8656 49.1263 33.8656 49.3775C33.8656 49.6292 33.815 49.8711 33.7137 50.1031C33.6129 50.3356 33.4554 50.5463 33.2412 50.735ZM44.9244 50.7306C44.7406 50.8911 44.5458 51.0177 44.34 51.1106C44.1338 51.2036 43.9038 51.25 43.65 51.25C43.3963 51.25 43.1465 51.1965 42.9006 51.0894C42.6544 50.9823 42.4392 50.8371 42.255 50.6538C40.7388 49.0129 39.5825 47.2886 38.7863 45.4806C37.9896 43.6731 37.5913 41.7638 37.5913 39.7525C37.5913 38.2938 37.8083 36.7363 38.2425 35.08C38.6771 33.4242 39.4327 31.319 40.5094 28.7644C41.4356 26.4536 42.0823 24.6704 42.4494 23.415C42.8165 22.1592 43 20.9873 43 19.8994C43 18.4519 42.6875 17.0788 42.0625 15.78C41.4375 14.4817 40.4583 13.2152 39.125 11.9806C38.9392 11.7902 38.7998 11.5763 38.7069 11.3388C38.614 11.1009 38.5675 10.855 38.5675 10.6013C38.5675 10.3592 38.6035 10.14 38.6756 9.94377C38.7477 9.74752 38.8627 9.55461 39.0206 9.36502C39.2098 9.17586 39.4308 9.02607 39.6838 8.91565C39.9363 8.80523 40.1871 8.75002 40.4362 8.75002C40.6854 8.75002 40.911 8.79732 41.1131 8.8919C41.3156 8.98607 41.5102 9.1119 41.6969 9.2694C43.3219 10.8015 44.5704 12.449 45.4425 14.2119C46.3142 15.9744 46.75 17.8454 46.75 19.825C46.75 21.2109 46.5433 22.6619 46.13 24.1781C45.7163 25.694 44.9919 27.7084 43.9569 30.2213C42.9473 32.6571 42.259 34.5417 41.8919 35.875C41.5248 37.2084 41.3413 38.4654 41.3413 39.6463C41.3413 41.1225 41.6538 42.5625 42.2788 43.9663C42.9038 45.37 43.8413 46.7546 45.0913 48.12C45.2433 48.3059 45.3575 48.5073 45.4338 48.7244C45.51 48.9411 45.5481 49.1579 45.5481 49.375C45.5481 49.6229 45.4975 49.8709 45.3963 50.1188C45.2954 50.3663 45.1381 50.5702 44.9244 50.7306ZM21.5588 50.7306C21.3754 50.8911 21.1806 51.0177 20.9744 51.1106C20.7681 51.2036 20.5381 51.25 20.2844 51.25C20.0306 51.25 19.7808 51.1965 19.535 51.0894C19.2892 50.9823 19.074 50.8371 18.8894 50.6538C17.3735 49.0129 16.2212 47.2886 15.4325 45.4806C14.6442 43.6731 14.25 41.7638 14.25 39.7525C14.25 38.2938 14.4631 36.7363 14.8894 35.08C15.3156 33.4242 16.0673 31.319 17.1444 28.7644C18.0706 26.4536 18.7173 24.6704 19.0844 23.415C19.4515 22.1592 19.635 20.9873 19.635 19.8994C19.635 18.4519 19.3225 17.0788 18.6975 15.78C18.0725 14.4817 17.0933 13.2152 15.76 11.9806C15.5458 11.7902 15.3929 11.5761 15.3013 11.3381C15.2096 11.0998 15.1637 10.8567 15.1637 10.6088C15.1637 10.3613 15.2063 10.129 15.2913 9.9119C15.3758 9.69523 15.4969 9.49377 15.6544 9.30752C15.8431 9.12169 16.0577 8.97835 16.2981 8.87752C16.5385 8.77669 16.7813 8.72627 17.0263 8.72627C17.2717 8.72627 17.5037 8.77565 17.7225 8.8744C17.9412 8.97315 18.1444 9.10481 18.3319 9.2694C19.9569 10.8015 21.2052 12.4436 22.0769 14.1956C22.9485 15.9481 23.3844 17.8286 23.3844 19.8369C23.3844 21.199 23.1881 22.6379 22.7956 24.1538C22.4031 25.67 21.6896 27.675 20.655 30.1688C19.6608 32.5817 18.9762 34.4629 18.6012 35.8125C18.2262 37.1617 18.0387 38.4404 18.0387 39.6488C18.0387 41.1392 18.3408 42.5877 18.945 43.9944C19.5492 45.4011 20.4762 46.7763 21.7262 48.12C21.8783 48.3059 21.9925 48.5073 22.0688 48.7244C22.1446 48.9411 22.1825 49.1579 22.1825 49.375C22.1825 49.6229 22.1321 49.8709 22.0312 50.1188C21.9304 50.3663 21.7729 50.5702 21.5588 50.7306Z" />
    </symbol>

    <symbol viewBox="0 0 61 60" id="land-washing-techs-3">
        <path d="M40.8319 53.5C38.3894 53.0992 36.3004 52.0246 34.565 50.2763C32.8296 48.5279 31.7694 46.4327 31.3844 43.9906H34.255C34.6138 45.641 35.3869 47.06 36.5744 48.2475C37.7619 49.435 39.1811 50.2083 40.8319 50.5675V53.5ZM44.3894 53.5625V50.5675C46.3415 50.1413 47.9592 49.1613 49.2425 47.6275C50.5263 46.0938 51.1681 44.2883 51.1681 42.2113C51.1681 40.1346 50.5263 38.3294 49.2425 36.7956C47.9592 35.2619 46.3415 34.2819 44.3894 33.8556V30.8606C47.149 31.2869 49.4654 32.5642 51.3388 34.6925C53.2121 36.8204 54.1488 39.3267 54.1488 42.2113C54.1488 45.0958 53.2121 47.6023 51.3388 49.7306C49.4654 51.859 47.149 53.1363 44.3894 53.5625ZM31.3844 40.4325C31.7694 37.9904 32.8296 35.8952 34.565 34.1469C36.3004 32.3985 38.3894 31.324 40.8319 30.9231V33.8556C39.1811 34.2148 37.7619 34.9881 36.5744 36.1756C35.3869 37.3631 34.6138 38.7821 34.255 40.4325H31.3844ZM40.3031 46.8269V37.5963L47.4281 42.2113L40.3031 46.8269ZM24.7306 53.75L23.7788 46.1344C23.1092 45.9102 22.4225 45.5963 21.7188 45.1925C21.0154 44.7883 20.3865 44.3556 19.8319 43.8944L12.7788 46.875L7.01001 36.875L13.1106 32.2644C13.0531 31.8927 13.0123 31.5194 12.9881 31.1444C12.964 30.7694 12.9519 30.3958 12.9519 30.0238C12.9519 29.6683 12.964 29.3071 12.9881 28.94C13.0123 28.5729 13.0531 28.1715 13.1106 27.7356L7.01001 23.125L12.7788 13.1731L19.8075 16.13C20.4104 15.6525 21.054 15.2158 21.7381 14.82C22.4223 14.4242 23.0946 14.106 23.755 13.8656L24.7306 6.25H36.2694L37.2213 13.8894C37.9713 14.1619 38.6498 14.48 39.2569 14.8438C39.8644 15.2075 40.4775 15.6363 41.0963 16.13L48.2213 13.1731L53.99 23.125L49.365 26.625C48.6567 26.3108 47.9317 26.0417 47.19 25.8175C46.4479 25.5929 45.6715 25.4263 44.8606 25.3175L49.0863 22.125L46.625 17.875L40.3413 20.5238C39.5046 19.6296 38.5023 18.8396 37.3344 18.1538C36.166 17.4679 34.9842 16.9823 33.7888 16.6969L33 10H28.0388L27.2113 16.6731C25.9358 16.9744 24.7581 17.4358 23.6781 18.0575C22.5977 18.6796 21.5671 19.4808 20.5863 20.4613L14.375 17.875L11.9138 22.125L17.3125 26.1488C17.1042 26.7421 16.9583 27.3592 16.875 28C16.7917 28.6408 16.75 29.3154 16.75 30.0238C16.75 30.6746 16.7917 31.3125 16.875 31.9375C16.9583 32.5625 17.0963 33.1796 17.2888 33.7887L11.9138 37.875L14.375 42.125L20.5625 39.5C21.3188 40.2563 22.1192 40.9156 22.9638 41.4781C23.8083 42.0406 24.7258 42.5015 25.7163 42.8606C25.79 44.9631 26.2275 46.944 27.0288 48.8031C27.83 50.6619 28.9021 52.3108 30.245 53.75H24.7306ZM26.7163 36.4806C26.9183 35.8556 27.1565 35.2579 27.4306 34.6875C27.7044 34.1171 28.0144 33.5658 28.3606 33.0338C27.8702 32.7004 27.484 32.2694 27.2019 31.7406C26.9198 31.2115 26.7788 30.6313 26.7788 30C26.7788 28.9583 27.1433 28.0729 27.8725 27.3438C28.6017 26.6146 29.4871 26.25 30.5288 26.25C31.1442 26.25 31.7267 26.3933 32.2763 26.68C32.8263 26.9671 33.2679 27.3558 33.6013 27.8462C34.1329 27.5 34.6817 27.194 35.2475 26.9281C35.8133 26.6619 36.4006 26.4406 37.0094 26.2644C36.3715 25.1235 35.4781 24.2108 34.3294 23.5262C33.1802 22.8421 31.9133 22.5 30.5288 22.5C28.4229 22.5 26.6465 23.23 25.1994 24.69C23.7523 26.15 23.0288 27.92 23.0288 30C23.0288 31.375 23.3581 32.6394 24.0169 33.7931C24.6756 34.9469 25.5754 35.8427 26.7163 36.4806Z" />
    </symbol>

    <symbol viewBox="0 0 121 60" id="land-washing-techs-4">
        <path d="M23.1621 45.5321C23.1621 46.4321 22.481 47.1131 21.581 47.1131C20.6811 47.1131 20 46.4321 20 45.5321V31.5702C20 30.7189 20.6324 30.0865 21.4838 30.0865H26.5431C29.8025 30.0865 32.1133 32.5189 32.1133 35.5593C32.1133 38.5755 29.8025 41.0322 26.5431 41.0322H23.1621V45.5321ZM26.7863 32.8837H23.1621V38.235H26.7863C28.1971 38.235 29.1944 37.189 29.1944 35.5593C29.1944 33.9053 28.1971 32.8837 26.7863 32.8837Z" />
        <path d="M42.1919 29.8432C47.008 29.8432 50.462 33.7594 50.462 38.5998C50.462 43.4403 47.008 47.3564 42.1919 47.3564C37.3758 47.3564 33.9461 43.4403 33.9461 38.5998C33.9461 33.7594 37.3758 29.8432 42.1919 29.8432ZM42.1919 44.4375C45.1837 44.4375 47.2999 41.8592 47.2999 38.5998C47.2999 35.3404 45.1837 32.7621 42.1919 32.7621C39.1757 32.7621 37.1082 35.3161 37.1082 38.5998C37.1082 41.8835 39.1757 44.4375 42.1919 44.4375Z" />
        <path d="M53.4928 31.5702C53.4928 30.7189 54.1252 30.0865 54.9765 30.0865H63.125C63.9763 30.0865 64.6087 30.6702 64.6087 31.5216C64.6087 32.3486 63.9763 32.8837 63.125 32.8837H56.5332V37.0188H62.0304C62.8818 37.0188 63.5142 37.6025 63.5142 38.4539C63.5142 39.2809 62.8818 39.816 62.0304 39.816H56.5332V44.3159H63.125C63.9763 44.3159 64.6087 44.997 64.6087 45.7267C64.6087 46.5537 63.9763 47.1131 63.125 47.1131H54.9765C54.1252 47.1131 53.4928 46.4807 53.4928 45.6294V31.5702Z" />
        <path d="M67.6262 31.5459C67.6262 30.7432 68.3073 30.0622 69.1586 30.0622C69.6208 30.0622 70.1802 30.3297 70.4478 30.7189L75.7504 38.8674L81.1989 30.7189C81.4665 30.3297 81.9286 30.0622 82.3908 30.0622C83.1691 30.0622 83.8989 30.6702 83.8989 31.5459V45.6294C83.8989 46.4807 83.2908 47.1131 82.3908 47.1131C81.4665 47.1131 80.8584 46.4807 80.8584 45.6294V35.8269L76.845 41.9565C76.5531 42.3214 76.0909 42.6132 75.6288 42.5889C75.1909 42.6132 74.7288 42.3214 74.4369 41.9565L70.4235 35.608V45.6294C70.4235 46.4807 69.864 47.1131 69.0127 47.1131C68.1857 47.1131 67.6262 46.4807 67.6262 45.6294V31.5459Z" />
        <path d="M99.8566 47.2348C99.2728 47.2348 98.7864 46.8456 98.5188 46.2375L97.254 43.2943H90.0055L88.7406 46.2618C88.5217 46.8699 88.0109 47.2348 87.4515 47.2348C86.5758 47.2348 86.1623 46.6996 86.1623 45.9699C86.1623 45.824 86.1866 45.678 86.2353 45.5078L92.2919 30.9621C92.5595 30.3054 93.1189 29.9405 93.7513 29.9892C94.3351 29.9892 94.8702 30.354 95.1135 30.9621L101.097 45.2159C101.17 45.4105 101.219 45.6051 101.219 45.7997C101.219 46.6753 100.538 47.2348 99.8566 47.2348ZM96.0621 40.4971L93.6054 34.8053L91.1973 40.4971H96.0621Z" />
        <path d="M50.2345 19.0201C49.6752 19.3312 48.9405 19.535 48.2277 19.535C46.0784 19.535 44.3238 18.1619 44.3238 15.6732C44.3238 13.442 45.9468 11.8436 48.2277 11.8436C48.9186 11.8436 49.6533 12.0367 50.2235 12.3585C50.41 12.4551 50.4867 12.616 50.4867 12.8091C50.4867 13.0558 50.2784 13.324 50.0042 13.324C49.9055 13.324 49.7959 13.2918 49.6862 13.2381C49.2695 13.0021 48.776 12.8627 48.2277 12.8627C46.517 12.8627 45.4424 13.9998 45.4424 15.6732C45.4424 17.5505 46.6047 18.5159 48.2277 18.5159C48.7651 18.5159 49.2585 18.3764 49.6972 18.1405C49.7959 18.0868 49.8945 18.0654 49.9823 18.0654C50.2784 18.0654 50.4977 18.3228 50.4977 18.6017C50.4977 18.7841 50.41 18.9343 50.2345 19.0201Z" />
        <path d="M56.1316 18.8055C55.7259 19.1917 54.9692 19.535 54.2016 19.535C52.4032 19.535 51.2408 18.3335 51.2408 16.6708C51.2408 14.7936 52.5567 13.678 53.9494 13.678C55.353 13.678 56.6141 14.815 56.6361 16.4027C56.6141 16.6708 56.3838 16.8639 56.0987 16.8639H52.2497C52.3593 17.9259 53.1489 18.591 54.1578 18.591C54.9363 18.591 55.3201 18.3014 55.5943 18.0546C55.704 17.9903 55.8026 17.9581 55.9123 17.9581C56.1536 17.9581 56.351 18.1726 56.351 18.3872C56.351 18.5266 56.2852 18.6768 56.1316 18.8055ZM53.9494 14.6219C53.2037 14.6219 52.4909 14.9974 52.2935 16.0057H55.5285V15.9199C55.4517 15.1476 54.706 14.6219 53.9494 14.6219Z" />
        <path d="M58.9301 21.0582C58.9301 21.3479 58.7108 21.5731 58.4037 21.5731C58.1076 21.5731 57.8883 21.3586 57.8883 21.0582V14.3109C57.8883 14.0105 58.1076 13.7852 58.4037 13.7852C58.7108 13.7852 58.9301 14.0105 58.9301 14.3109V14.6327C59.2591 14.1607 59.9719 13.7101 60.7724 13.7101C62.2747 13.7101 63.4262 14.9116 63.4262 16.6172C63.4262 18.3121 62.2747 19.5243 60.8053 19.5243C59.9938 19.5243 59.3029 19.1059 58.9301 18.6661V21.0582ZM62.4173 16.6172C62.4173 15.4908 61.6826 14.6541 60.6518 14.6541C59.599 14.6541 58.8753 15.4908 58.8753 16.6172C58.8753 17.7435 59.599 18.5803 60.6518 18.5803C61.6826 18.5803 62.4173 17.7328 62.4173 16.6172Z" />
        <path d="M69.6883 18.9343C69.6883 19.2239 69.4799 19.4277 69.1838 19.4277C68.8768 19.4277 68.6794 19.2239 68.6794 18.9343V15.5981L65.6528 19.2453C65.5431 19.3741 65.3896 19.4277 65.2251 19.4277C64.94 19.4277 64.7207 19.2239 64.7207 18.9343V14.2787C64.7207 13.9998 64.918 13.7852 65.2251 13.7852C65.5321 13.7852 65.7295 13.9998 65.7295 14.2787V17.6148L68.7561 13.9676C68.8439 13.8603 69.0084 13.7852 69.1619 13.7852C69.4689 13.7852 69.6883 13.9998 69.6883 14.2894V18.9343Z" />
        <path d="M73.302 16.4456H74.903V14.697H73.291C72.7317 14.697 72.3589 15.0403 72.3589 15.5338C72.3589 16.1345 72.7427 16.4456 73.302 16.4456ZM71.8654 19.299C71.7009 19.3955 71.5255 19.4384 71.361 19.4384C71.0978 19.4384 70.8566 19.2775 70.8566 18.9986C70.8566 18.8377 70.9443 18.6875 71.1307 18.6017C71.361 18.4944 71.5474 18.3872 71.7229 17.9474C71.9203 17.4968 72.0738 17.1857 72.4357 17.0141C71.6351 16.6601 71.3171 16.1988 71.3171 15.4372C71.3171 14.4181 72.019 13.7852 73.1594 13.7852H75.4294C75.7145 13.7852 75.9448 14.0212 75.9448 14.3109V18.9021C75.9448 19.2024 75.7255 19.4277 75.4294 19.4277C75.1333 19.4277 74.903 19.2024 74.903 18.9021V17.3252H73.7406C73.0827 17.3252 72.9291 17.6041 72.666 18.2263C72.3918 18.8592 72.1615 19.1166 71.8654 19.299Z" />
    </symbol>

    <symbol viewBox="0 0 30 30" id="land-washing-catalogue-prev">
        <path d="M19.9772 2.93264L21.7513 4.70671L11.4582 14.9998L21.7513 25.293L19.9772 27.067L7.91003 14.9998L19.9772 2.93264Z" />
    </symbol>

    <symbol viewBox="0 0 30 30" id="land-washing-catalogue-next">
        <path d="M10.0228 27.0674L8.24872 25.2933L18.5418 15.0002L8.24872 4.70705L10.0228 2.93298L22.09 15.0002L10.0228 27.0674Z" />
    </symbol>

</svg>