<svg width="60" height="60" viewBox="0 0 60 60" fill="none" xmlns="http://www.w3.org/2000/svg">
<mask id="mask0_7279_8638" style="mask-type:alpha" maskUnits="userSpaceOnUse" x="0" y="0" width="60" height="60">
<rect width="60" height="60" fill="#D9D9D9"/>
</mask>
<g mask="url(#mask0_7279_8638)">
<path d="M40.3319 53.5C37.8894 53.0992 35.8004 52.0246 34.065 50.2763C32.3296 48.5279 31.2694 46.4327 30.8844 43.9906H33.755C34.1138 45.641 34.8869 47.06 36.0744 48.2475C37.2619 49.435 38.6811 50.2083 40.3319 50.5675V53.5ZM43.8894 53.5625V50.5675C45.8415 50.1413 47.4592 49.1613 48.7425 47.6275C50.0263 46.0938 50.6681 44.2883 50.6681 42.2113C50.6681 40.1346 50.0263 38.3294 48.7425 36.7956C47.4592 35.2619 45.8415 34.2819 43.8894 33.8556V30.8606C46.649 31.2869 48.9654 32.5642 50.8388 34.6925C52.7121 36.8204 53.6488 39.3267 53.6488 42.2113C53.6488 45.0958 52.7121 47.6023 50.8388 49.7306C48.9654 51.859 46.649 53.1363 43.8894 53.5625ZM30.8844 40.4325C31.2694 37.9904 32.3296 35.8952 34.065 34.1469C35.8004 32.3985 37.8894 31.324 40.3319 30.9231V33.8556C38.6811 34.2148 37.2619 34.9881 36.0744 36.1756C34.8869 37.3631 34.1138 38.7821 33.755 40.4325H30.8844ZM39.8031 46.8269V37.5963L46.9281 42.2113L39.8031 46.8269ZM24.2306 53.75L23.2788 46.1344C22.6092 45.9102 21.9225 45.5963 21.2188 45.1925C20.5154 44.7883 19.8865 44.3556 19.3319 43.8944L12.2788 46.875L6.51001 36.875L12.6106 32.2644C12.5531 31.8927 12.5123 31.5194 12.4881 31.1444C12.464 30.7694 12.4519 30.3958 12.4519 30.0238C12.4519 29.6683 12.464 29.3071 12.4881 28.94C12.5123 28.5729 12.5531 28.1715 12.6106 27.7356L6.51001 23.125L12.2788 13.1731L19.3075 16.13C19.9104 15.6525 20.554 15.2158 21.2381 14.82C21.9223 14.4242 22.5946 14.106 23.255 13.8656L24.2306 6.25H35.7694L36.7213 13.8894C37.4713 14.1619 38.1498 14.48 38.7569 14.8438C39.3644 15.2075 39.9775 15.6363 40.5963 16.13L47.7213 13.1731L53.49 23.125L48.865 26.625C48.1567 26.3108 47.4317 26.0417 46.69 25.8175C45.9479 25.5929 45.1715 25.4263 44.3606 25.3175L48.5863 22.125L46.125 17.875L39.8413 20.5238C39.0046 19.6296 38.0023 18.8396 36.8344 18.1538C35.666 17.4679 34.4842 16.9823 33.2888 16.6969L32.5 10H27.5388L26.7113 16.6731C25.4358 16.9744 24.2581 17.4358 23.1781 18.0575C22.0977 18.6796 21.0671 19.4808 20.0863 20.4613L13.875 17.875L11.4138 22.125L16.8125 26.1488C16.6042 26.7421 16.4583 27.3592 16.375 28C16.2917 28.6408 16.25 29.3154 16.25 30.0238C16.25 30.6746 16.2917 31.3125 16.375 31.9375C16.4583 32.5625 16.5963 33.1796 16.7888 33.7887L11.4138 37.875L13.875 42.125L20.0625 39.5C20.8188 40.2563 21.6192 40.9156 22.4638 41.4781C23.3083 42.0406 24.2258 42.5015 25.2163 42.8606C25.29 44.9631 25.7275 46.944 26.5288 48.8031C27.33 50.6619 28.4021 52.3108 29.745 53.75H24.2306ZM26.2163 36.4806C26.4183 35.8556 26.6565 35.2579 26.9306 34.6875C27.2044 34.1171 27.5144 33.5658 27.8606 33.0338C27.3702 32.7004 26.984 32.2694 26.7019 31.7406C26.4198 31.2115 26.2788 30.6313 26.2788 30C26.2788 28.9583 26.6433 28.0729 27.3725 27.3438C28.1017 26.6146 28.9871 26.25 30.0288 26.25C30.6442 26.25 31.2267 26.3933 31.7763 26.68C32.3263 26.9671 32.7679 27.3558 33.1013 27.8462C33.6329 27.5 34.1817 27.194 34.7475 26.9281C35.3133 26.6619 35.9006 26.4406 36.5094 26.2644C35.8715 25.1235 34.9781 24.2108 33.8294 23.5262C32.6802 22.8421 31.4133 22.5 30.0288 22.5C27.9229 22.5 26.1465 23.23 24.6994 24.69C23.2523 26.15 22.5288 27.92 22.5288 30C22.5288 31.375 22.8581 32.6394 23.5169 33.7931C24.1756 34.9469 25.0754 35.8427 26.2163 36.4806Z" fill="#C99B69"/>
</g>
</svg>
