<svg width="143" height="48" viewBox="0 0 143 48" fill="none" xmlns="http://www.w3.org/2000/svg">
<rect x="0.5" width="142" height="48" rx="6" fill="black"/>
<path d="M33.9644 25.0815C33.9644 29.9672 36.3832 32.4489 41.1688 32.4489C45.9397 32.4489 48.351 29.9672 48.351 25.0815C48.351 20.1773 45.9397 17.6956 41.1688 17.6956C36.3832 17.6956 33.9644 20.1773 33.9644 25.0815ZM37.4685 25.0815C37.4685 21.8627 38.5019 20.5588 41.1392 20.5588C43.8321 20.5588 44.8433 21.8182 44.8433 25.0815C44.8433 28.3041 43.8061 29.6079 41.1392 29.6079C38.4649 29.6079 37.4685 28.3559 37.4685 25.0815Z" fill="white"/>
<path d="M77.4541 25.0815C77.4541 29.9672 79.8877 32.4489 84.666 32.4489C89.4294 32.4489 91.8445 29.9672 91.8445 25.0815C91.8445 20.1773 89.4294 17.6956 84.666 17.6956C79.884 17.6956 77.4541 20.1773 77.4541 25.0815ZM80.9693 25.0815C80.9693 21.8627 81.9953 20.5588 84.6326 20.5588C87.3292 20.5588 88.3293 21.8182 88.3293 25.0815C88.3293 28.3041 87.2922 29.6079 84.6326 29.6079C81.962 29.6079 80.9693 28.3559 80.9693 25.0815Z" fill="white"/>
<path d="M117.607 14.6471V28.0262C117.607 30.7524 119.244 32.197 122.348 32.197H125.374C126.152 32.197 126.5 31.5044 126.5 30.8376C126.5 30.1672 126.152 29.4745 125.374 29.4745H123.618C122.015 29.4745 121.177 29.3745 121.177 27.4743V21.0033H125.13C125.908 21.0033 126.256 20.3069 126.256 19.6328C126.256 18.9698 125.908 18.2734 125.13 18.2734L121.177 18.2808V14.6471C121.177 13.7248 120.522 13.1692 119.451 13.1692C118.588 13.1692 117.607 13.5581 117.607 14.6471Z" fill="white"/>
<path d="M51.0147 14.6471V28.0262C51.0147 30.7524 52.6556 32.197 55.7745 32.197H58.8007C59.5712 32.197 59.9156 31.5044 59.9156 30.8376C59.9156 30.1672 59.5712 29.4745 58.8007 29.4745H57.0339C55.43 29.4745 54.5929 29.3745 54.5929 27.4743V21.0033H58.5414C59.3193 21.0033 59.6675 20.3069 59.6675 19.6328C59.6675 18.9698 59.3193 18.2734 58.5414 18.2734H54.5929V14.6471C54.5929 13.7248 53.9484 13.1692 52.8631 13.1692C52.0074 13.1692 51.0147 13.5581 51.0147 14.6471Z" fill="white"/>
<path d="M107.083 17.9956C102.983 17.9956 101.231 19.6254 101.231 23.448V30.6932C101.231 31.6044 101.898 32.1378 103.02 32.1378C104.135 32.1378 104.805 31.6007 104.805 30.7006V23.6999C104.805 21.6552 105.161 21.0181 107.38 21.0181H108.417C110.636 21.0181 111.002 21.6552 111.002 23.6999V30.6932C110.988 31.6044 111.665 32.1378 112.78 32.1378C113.899 32.1378 114.566 31.6007 114.566 30.7006V23.4443C114.566 19.6217 112.814 17.9919 108.71 17.9919H107.083V17.9956Z" fill="white"/>
<path d="M94.504 19.5365V30.6228C94.504 31.76 95.4375 32.1711 96.3116 32.1711C97.1858 32.1711 98.1081 31.76 98.1081 30.6228V19.5365C98.1081 18.3956 97.1858 17.9845 96.3005 17.9845C95.4375 17.9845 94.504 18.3956 94.504 19.5365Z" fill="white"/>
<path d="M94.2823 14.1137C94.2823 15.2435 95.1972 16.1547 96.301 16.1547C97.4271 16.1547 98.3309 15.2435 98.3309 14.1137C98.3309 12.9877 97.4308 12.0654 96.301 12.0654C95.1972 12.0654 94.2823 12.9877 94.2823 14.1137Z" fill="white"/>
<path d="M64.0382 18.4142C62.6529 18.7216 61.8825 19.5921 61.8825 21.1144V36.4567C61.8825 37.542 62.7974 37.9347 63.6641 37.9347C64.5272 37.9347 65.4495 37.542 65.4495 36.4567V31.997C66.294 32.1822 67.046 32.2674 68.0349 32.2674C70.2166 32.2674 71.3501 31.897 72.591 31.1562C74.4245 30.0598 75.5098 28.0003 75.5098 25.2482C75.5098 20.4514 73.0614 18.0141 68.2053 18.0141C66.8904 18.0141 65.268 18.1364 64.0382 18.4142ZM65.4458 29.2338V21.17C66.1755 21.0144 67.0904 20.9366 67.9646 20.9366C70.7908 20.9366 71.9279 21.9923 71.9279 24.9667C71.9279 28.3115 70.976 29.4671 67.909 29.4671C67.0719 29.4708 66.0829 29.3894 65.4458 29.2338Z" fill="white"/>
<path d="M27.7382 14.2248V20.7218H20.0744V14.2248C20.0744 13.3062 19.4299 12.7617 18.3446 12.7617C17.4964 12.7617 16.5 13.1432 16.5 14.2248V30.6783C16.5 31.597 17.1519 32.1489 18.2409 32.1489C19.0966 32.1489 20.0744 31.7636 20.0744 30.6783V23.9814H27.7382V30.6746C27.7382 31.5933 28.3901 32.1452 29.4754 32.1452C30.3199 32.1452 31.3163 31.7599 31.3163 30.6746V14.2248C31.3163 13.3062 30.6607 12.7617 29.5717 12.7617C28.7272 12.7617 27.7382 13.1432 27.7382 14.2248Z" fill="white"/>
</svg>
