<svg width="72" height="62" viewBox="0 0 72 62" fill="none" xmlns="http://www.w3.org/2000/svg">
<mask id="path-1-outside-1_7918_1152" maskUnits="userSpaceOnUse" x="-0.471191" y="0" width="73" height="62" fill="black">
<rect fill="white" x="-0.471191" width="73" height="62"/>
<path d="M71.2501 14.085L58.3441 1.17903C58.2752 1.1131 58.1925 1.06327 58.1021 1.03311C58.0116 1.00296 57.9156 0.993228 57.8209 1.00462H14.0452C13.8708 1.00462 13.6964 1.17903 13.522 1.17903L3.40649 11.2945L0.790416 13.9106C0.441606 14.2594 0.441606 14.4338 0.790416 14.7826L10.9059 24.8981C11.0569 25.0113 11.2404 25.0725 11.4291 25.0725C11.6178 25.0725 11.8014 25.0113 11.9523 24.8981L12.65 24.2005L13.522 23.3285V60.3024C13.5342 60.4834 13.6117 60.6538 13.7399 60.7821C13.8682 60.9103 14.0386 60.9878 14.2196 61H57.9953C58.1763 60.9878 58.3467 60.9103 58.475 60.7821C58.6033 60.6538 58.6807 60.4834 58.6929 60.3024V23.5029L60.2626 25.0725C60.4135 25.1857 60.5971 25.2469 60.7858 25.2469C60.9745 25.2469 61.1581 25.1857 61.309 25.0725L71.4245 14.957C71.4745 14.8092 71.4847 14.6507 71.4541 14.4977C71.4235 14.3446 71.3531 14.2023 71.2501 14.085ZM39.5084 2.22546H47.531C47.3702 5.12331 46.1057 7.84956 43.9974 9.84413C41.8891 11.8387 39.097 12.9502 36.1947 12.9502C33.2924 12.9502 30.5002 11.8387 28.3919 9.84413C26.2836 7.84956 25.0191 5.12331 24.8583 2.22546H32.7066M11.4291 23.6773L2.18566 14.4338L3.92971 12.6898L13.1732 21.9332L11.4291 23.6773ZM57.9953 14.6082C57.8143 14.6205 57.6439 14.6979 57.5156 14.8262C57.3874 14.9544 57.3099 15.1249 57.2977 15.3058V59.7792H14.7428V15.3058C14.7428 15.1208 14.6693 14.9434 14.5385 14.8126C14.4077 14.6817 14.2302 14.6082 14.0452 14.6082C13.8602 14.6082 13.6827 14.6817 13.5519 14.8126C13.4211 14.9434 13.3476 15.1208 13.3476 15.3058V20.538L4.80173 11.8177L14.394 2.22546H23.4631C23.6438 5.44838 25.0404 8.48274 27.371 10.7162C29.7015 12.9497 32.7926 14.2159 36.0203 14.2594C39.2658 14.2753 42.3904 13.0287 44.7336 10.7831C47.0769 8.53744 48.4552 5.46873 48.5774 2.22546H57.6465L67.2388 11.8177L58.6929 20.3636V15.1314C58.6929 14.7826 58.3441 14.6082 57.9953 14.6082ZM60.6114 23.6773L58.8673 21.9332L68.1108 12.6898L69.8549 14.4338L60.6114 23.6773Z"/>
</mask>
<path d="M71.2501 14.085L58.3441 1.17903C58.2752 1.1131 58.1925 1.06327 58.1021 1.03311C58.0116 1.00296 57.9156 0.993228 57.8209 1.00462H14.0452C13.8708 1.00462 13.6964 1.17903 13.522 1.17903L3.40649 11.2945L0.790416 13.9106C0.441606 14.2594 0.441606 14.4338 0.790416 14.7826L10.9059 24.8981C11.0569 25.0113 11.2404 25.0725 11.4291 25.0725C11.6178 25.0725 11.8014 25.0113 11.9523 24.8981L12.65 24.2005L13.522 23.3285V60.3024C13.5342 60.4834 13.6117 60.6538 13.7399 60.7821C13.8682 60.9103 14.0386 60.9878 14.2196 61H57.9953C58.1763 60.9878 58.3467 60.9103 58.475 60.7821C58.6033 60.6538 58.6807 60.4834 58.6929 60.3024V23.5029L60.2626 25.0725C60.4135 25.1857 60.5971 25.2469 60.7858 25.2469C60.9745 25.2469 61.1581 25.1857 61.309 25.0725L71.4245 14.957C71.4745 14.8092 71.4847 14.6507 71.4541 14.4977C71.4235 14.3446 71.3531 14.2023 71.2501 14.085ZM39.5084 2.22546H47.531C47.3702 5.12331 46.1057 7.84956 43.9974 9.84413C41.8891 11.8387 39.097 12.9502 36.1947 12.9502C33.2924 12.9502 30.5002 11.8387 28.3919 9.84413C26.2836 7.84956 25.0191 5.12331 24.8583 2.22546H32.7066M11.4291 23.6773L2.18566 14.4338L3.92971 12.6898L13.1732 21.9332L11.4291 23.6773ZM57.9953 14.6082C57.8143 14.6205 57.6439 14.6979 57.5156 14.8262C57.3874 14.9544 57.3099 15.1249 57.2977 15.3058V59.7792H14.7428V15.3058C14.7428 15.1208 14.6693 14.9434 14.5385 14.8126C14.4077 14.6817 14.2302 14.6082 14.0452 14.6082C13.8602 14.6082 13.6827 14.6817 13.5519 14.8126C13.4211 14.9434 13.3476 15.1208 13.3476 15.3058V20.538L4.80173 11.8177L14.394 2.22546H23.4631C23.6438 5.44838 25.0404 8.48274 27.371 10.7162C29.7015 12.9497 32.7926 14.2159 36.0203 14.2594C39.2658 14.2753 42.3904 13.0287 44.7336 10.7831C47.0769 8.53744 48.4552 5.46873 48.5774 2.22546H57.6465L67.2388 11.8177L58.6929 20.3636V15.1314C58.6929 14.7826 58.3441 14.6082 57.9953 14.6082ZM60.6114 23.6773L58.8673 21.9332L68.1108 12.6898L69.8549 14.4338L60.6114 23.6773Z" fill="#C99B69"/>
<path d="M71.2501 14.085L71.6257 13.755L71.6151 13.7429L71.6036 13.7315L71.2501 14.085ZM58.3441 1.17903L58.6978 0.82539L58.6898 0.817748L58.3441 1.17903ZM57.8209 1.00462V1.50462H57.8509L57.8806 1.50104L57.8209 1.00462ZM13.522 1.17903V0.67903H13.3149L13.1684 0.825476L13.522 1.17903ZM3.40649 11.2945L3.05294 10.941L3.40649 11.2945ZM0.790416 13.9106L1.14397 14.2642L0.790416 13.9106ZM0.790416 14.7826L0.436863 15.1362H0.436863L0.790416 14.7826ZM10.9059 24.8981L10.5524 25.2517L10.5775 25.2768L10.6059 25.2981L10.9059 24.8981ZM11.9523 24.8981L12.2523 25.2981L12.2808 25.2768L12.3059 25.2517L11.9523 24.8981ZM12.65 24.2005L13.0035 24.5541L12.65 24.2005ZM13.522 23.3285H14.022V22.1214L13.1684 22.9749L13.522 23.3285ZM13.522 60.3024H13.022V60.3193L13.0231 60.3361L13.522 60.3024ZM14.2196 61L14.1859 61.4989L14.2027 61.5H14.2196V61ZM57.9953 61V61.5H58.0122L58.029 61.4989L57.9953 61ZM58.6929 60.3024L59.1918 60.3361L59.1929 60.3193V60.3024H58.6929ZM58.6929 23.5029L59.0465 23.1493L58.1929 22.2958V23.5029H58.6929ZM60.2626 25.0725L59.909 25.4261L59.9341 25.4512L59.9626 25.4725L60.2626 25.0725ZM61.309 25.0725L61.609 25.4725L61.6374 25.4512L61.6626 25.4261L61.309 25.0725ZM71.4245 14.957L71.7781 15.3106L71.8607 15.2279L71.8981 15.1172L71.4245 14.957ZM47.531 2.22546L48.0302 2.25316L48.0595 1.72546H47.531V2.22546ZM24.8583 2.22546V1.72546H24.3298L24.3591 2.25316L24.8583 2.22546ZM11.4291 23.6773L11.0756 24.0308L11.4291 24.3844L11.7827 24.0308L11.4291 23.6773ZM2.18566 14.4338L1.8321 14.0803L1.47855 14.4338L1.8321 14.7874L2.18566 14.4338ZM3.92971 12.6898L4.28326 12.3362L3.92971 11.9827L3.57615 12.3362L3.92971 12.6898ZM13.1732 21.9332L13.5267 22.2868L13.8803 21.9332L13.5267 21.5797L13.1732 21.9332ZM57.9953 14.6082V14.1082H57.9784L57.9616 14.1094L57.9953 14.6082ZM57.2977 15.3058L56.7988 15.2721L56.7977 15.289V15.3058H57.2977ZM57.2977 59.7792V60.2792H57.7977V59.7792H57.2977ZM14.7428 59.7792H14.2428V60.2792H14.7428V59.7792ZM13.3476 20.538L12.9905 20.888L13.8476 21.7626V20.538H13.3476ZM4.80173 11.8177L4.44818 11.4642L4.09818 11.8142L4.44463 12.1677L4.80173 11.8177ZM14.394 2.22546V1.72546H14.1869L14.0405 1.87191L14.394 2.22546ZM23.4631 2.22546L23.9623 2.19746L23.9358 1.72546H23.4631V2.22546ZM36.0203 14.2594L36.0135 14.7594L36.0178 14.7594L36.0203 14.2594ZM48.5774 2.22546V1.72546H48.0959L48.0778 2.20664L48.5774 2.22546ZM57.6465 2.22546L58 1.87191L57.8536 1.72546H57.6465V2.22546ZM67.2388 11.8177L67.5923 12.1713L67.9459 11.8177L67.5923 11.4642L67.2388 11.8177ZM58.6929 20.3636H58.1929V21.5707L59.0465 20.7171L58.6929 20.3636ZM60.6114 23.6773L60.2578 24.0308L60.6114 24.3844L60.9649 24.0308L60.6114 23.6773ZM58.8673 21.9332L58.5138 21.5797L58.1602 21.9332L58.5138 22.2868L58.8673 21.9332ZM68.1108 12.6898L68.4644 12.3362L68.1108 11.9827L67.7572 12.3362L68.1108 12.6898ZM69.8549 14.4338L70.2084 14.7874L70.562 14.4338L70.2084 14.0803L69.8549 14.4338ZM71.6036 13.7315L58.6977 0.825476L57.9906 1.53258L70.8965 14.4386L71.6036 13.7315ZM58.6898 0.817748C58.5675 0.700741 58.4208 0.612296 58.2602 0.558773L57.944 1.50746C57.9643 1.51425 57.9829 1.52547 57.9985 1.54031L58.6898 0.817748ZM58.2602 0.558773C58.0996 0.50525 57.9292 0.487981 57.7611 0.508208L57.8806 1.50104C57.902 1.49848 57.9236 1.50067 57.944 1.50746L58.2602 0.558773ZM57.8209 0.504625H14.0452V1.50462H57.8209V0.504625ZM14.0452 0.504625C13.9197 0.504625 13.8135 0.535713 13.7388 0.563711C13.6663 0.590915 13.5988 0.625185 13.56 0.644614C13.5116 0.668786 13.4919 0.678118 13.4772 0.683614C13.4647 0.688318 13.4837 0.67903 13.522 0.67903V1.67903C13.6475 1.67903 13.7537 1.64794 13.8284 1.61994C13.9009 1.59274 13.9683 1.55847 14.0072 1.53904C14.0556 1.51487 14.0753 1.50554 14.09 1.50004C14.1025 1.49534 14.0835 1.50462 14.0452 1.50462V0.504625ZM13.1684 0.825476L3.05294 10.941L3.76005 11.6481L13.8755 1.53258L13.1684 0.825476ZM3.05294 10.941L0.436863 13.5571L1.14397 14.2642L3.76005 11.6481L3.05294 10.941ZM0.436863 13.5571C0.264985 13.7289 0.0288086 13.9909 0.0288086 14.3466C0.0288086 14.7023 0.264985 14.9643 0.436863 15.1362L1.14397 14.4291C1.06747 14.3526 1.03364 14.3083 1.02004 14.2862C1.00947 14.2691 1.02881 14.2939 1.02881 14.3466C1.02881 14.3994 1.00947 14.4242 1.02004 14.407C1.03364 14.3849 1.06747 14.3407 1.14397 14.2642L0.436863 13.5571ZM0.436863 15.1362L10.5524 25.2517L11.2595 24.5446L1.14397 14.4291L0.436863 15.1362ZM10.6059 25.2981C10.8434 25.4762 11.1323 25.5725 11.4291 25.5725V24.5725C11.3486 24.5725 11.2703 24.5464 11.2059 24.4981L10.6059 25.2981ZM11.4291 25.5725C11.726 25.5725 12.0149 25.4762 12.2523 25.2981L11.6523 24.4981C11.5879 24.5464 11.5096 24.5725 11.4291 24.5725V25.5725ZM12.3059 25.2517L13.0035 24.5541L12.2964 23.847L11.5988 24.5446L12.3059 25.2517ZM13.0035 24.5541L13.8755 23.682L13.1684 22.9749L12.2964 23.847L13.0035 24.5541ZM13.022 23.3285V60.3024H14.022V23.3285H13.022ZM13.0231 60.3361C13.0435 60.6378 13.1726 60.9218 13.3864 61.1356L14.0935 60.4285C14.0507 60.3857 14.0249 60.329 14.0209 60.2686L13.0231 60.3361ZM13.3864 61.1356C13.6002 61.3494 13.8842 61.4785 14.1859 61.4989L14.2534 60.5011C14.193 60.4971 14.1362 60.4713 14.0935 60.4285L13.3864 61.1356ZM14.2196 61.5H57.9953V60.5H14.2196V61.5ZM58.029 61.4989C58.3307 61.4785 58.6147 61.3494 58.8285 61.1356L58.1214 60.4285C58.0787 60.4713 58.0219 60.4971 57.9616 60.5011L58.029 61.4989ZM58.8285 61.1356C59.0423 60.9218 59.1714 60.6378 59.1918 60.3361L58.1941 60.2686C58.19 60.329 58.1642 60.3858 58.1214 60.4285L58.8285 61.1356ZM59.1929 60.3024V23.5029H58.1929V60.3024H59.1929ZM58.3394 23.8564L59.909 25.4261L60.6161 24.719L59.0465 23.1493L58.3394 23.8564ZM59.9626 25.4725C60.2001 25.6507 60.4889 25.7469 60.7858 25.7469V24.7469C60.7053 24.7469 60.627 24.7208 60.5626 24.6725L59.9626 25.4725ZM60.7858 25.7469C61.0827 25.7469 61.3715 25.6507 61.609 25.4725L61.009 24.6725C60.9446 24.7208 60.8663 24.7469 60.7858 24.7469V25.7469ZM61.6626 25.4261L71.7781 15.3106L71.0709 14.6035L60.9554 24.719L61.6626 25.4261ZM71.8981 15.1172C71.9763 14.8862 71.9922 14.6387 71.9444 14.3996L70.9638 14.5957C70.9772 14.6627 70.9727 14.7321 70.9508 14.7969L71.8981 15.1172ZM71.9444 14.3996C71.8966 14.1605 71.7867 13.9382 71.6257 13.755L70.8745 14.415C70.9196 14.4664 70.9504 14.5287 70.9638 14.5957L71.9444 14.3996ZM39.5084 2.72546H47.531V1.72546H39.5084V2.72546ZM47.0318 2.19776C46.878 4.96799 45.6693 7.57418 43.6538 9.48092L44.341 10.2074C46.5422 8.12493 47.8623 5.27863 48.0302 2.25316L47.0318 2.19776ZM43.6538 9.48092C41.6383 11.3877 38.9692 12.4502 36.1947 12.4502V13.4502C39.2248 13.4502 42.1399 12.2898 44.341 10.2074L43.6538 9.48092ZM36.1947 12.4502C33.4202 12.4502 30.751 11.3877 28.7355 9.48092L28.0483 10.2074C30.2495 12.2898 33.1645 13.4502 36.1947 13.4502V12.4502ZM28.7355 9.48092C26.72 7.57418 25.5113 4.96799 25.3576 2.19776L24.3591 2.25316C24.527 5.27863 25.8471 8.12493 28.0483 10.2074L28.7355 9.48092ZM24.8583 2.72546H32.7066V1.72546H24.8583V2.72546ZM11.7827 23.3237L2.53921 14.0803L1.8321 14.7874L11.0756 24.0308L11.7827 23.3237ZM2.53921 14.7874L4.28326 13.0433L3.57615 12.3362L1.8321 14.0803L2.53921 14.7874ZM3.57615 13.0433L12.8196 22.2868L13.5267 21.5797L4.28326 12.3362L3.57615 13.0433ZM12.8196 21.5797L11.0756 23.3237L11.7827 24.0308L13.5267 22.2868L12.8196 21.5797ZM57.9616 14.1094C57.6599 14.1298 57.3759 14.2588 57.1621 14.4726L57.8692 15.1797C57.9119 15.137 57.9687 15.1112 58.029 15.1071L57.9616 14.1094ZM57.1621 14.4726C56.9483 14.6864 56.8192 14.9704 56.7988 15.2721L57.7965 15.3396C57.8006 15.2793 57.8264 15.2225 57.8692 15.1797L57.1621 14.4726ZM56.7977 15.3058V59.7792H57.7977V15.3058H56.7977ZM57.2977 59.2792H14.7428V60.2792H57.2977V59.2792ZM15.2428 59.7792V15.3058H14.2428V59.7792H15.2428ZM15.2428 15.3058C15.2428 14.9882 15.1166 14.6836 14.8921 14.459L14.1849 15.1661C14.222 15.2032 14.2428 15.2534 14.2428 15.3058H15.2428ZM14.8921 14.459C14.6675 14.2344 14.3628 14.1082 14.0452 14.1082V15.1082C14.0976 15.1082 14.1479 15.129 14.1849 15.1661L14.8921 14.459ZM14.0452 14.1082C13.7276 14.1082 13.423 14.2344 13.1984 14.459L13.9055 15.1661C13.9425 15.129 13.9928 15.1082 14.0452 15.1082V14.1082ZM13.1984 14.459C12.9738 14.6836 12.8476 14.9882 12.8476 15.3058H13.8476C13.8476 15.2534 13.8684 15.2032 13.9055 15.1661L13.1984 14.459ZM12.8476 15.3058V20.538H13.8476V15.3058H12.8476ZM13.7047 20.188L5.15884 11.4678L4.44463 12.1677L12.9905 20.888L13.7047 20.188ZM5.15529 12.1713L14.7476 2.57901L14.0405 1.87191L4.44818 11.4642L5.15529 12.1713ZM14.394 2.72546H23.4631V1.72546H14.394V2.72546ZM22.9639 2.25346C23.1517 5.60277 24.6031 8.75614 27.025 11.0772L27.7169 10.3552C25.4778 8.20934 24.136 5.29398 23.9623 2.19746L22.9639 2.25346ZM27.025 11.0772C29.447 13.3982 32.6592 14.7142 36.0135 14.7594L36.027 13.7595C32.9259 13.7177 29.9561 12.5011 27.7169 10.3552L27.025 11.0772ZM36.0178 14.7594C39.3931 14.7759 42.6426 13.4795 45.0796 11.1441L44.3877 10.4221C42.1381 12.5779 39.1385 13.7747 36.0227 13.7594L36.0178 14.7594ZM45.0796 11.1441C47.5165 8.80865 48.95 5.61723 49.0771 2.24428L48.0778 2.20664C47.9605 5.32023 46.6372 8.26624 44.3877 10.4221L45.0796 11.1441ZM48.5774 2.72546H57.6465V1.72546H48.5774V2.72546ZM57.2929 2.57901L66.8852 12.1713L67.5923 11.4642L58 1.87191L57.2929 2.57901ZM66.8852 11.4642L58.3394 20.01L59.0465 20.7171L67.5923 12.1713L66.8852 11.4642ZM59.1929 20.3636V15.1314H58.1929V20.3636H59.1929ZM59.1929 15.1314C59.1929 14.7631 58.9983 14.487 58.7523 14.323C58.521 14.1689 58.2439 14.1082 57.9953 14.1082V15.1082C58.0417 15.1082 58.0855 15.1141 58.1226 15.124C58.1603 15.1341 58.1846 15.1464 58.1976 15.1551C58.2099 15.1633 58.207 15.1647 58.2011 15.1545C58.1938 15.142 58.1929 15.1312 58.1929 15.1314H59.1929ZM60.9649 23.3237L59.2209 21.5797L58.5138 22.2868L60.2578 24.0308L60.9649 23.3237ZM59.2209 22.2868L68.4644 13.0433L67.7572 12.3362L58.5138 21.5797L59.2209 22.2868ZM67.7572 13.0433L69.5013 14.7874L70.2084 14.0803L68.4644 12.3362L67.7572 13.0433ZM69.5013 14.0803L60.2578 23.3237L60.9649 24.0308L70.2084 14.7874L69.5013 14.0803Z" fill="#C99B69" mask="url(#path-1-outside-1_7918_1152)"/>
<mask id="path-3-outside-2_7918_1152" maskUnits="userSpaceOnUse" x="22.6848" y="22.6075" width="27" height="22" fill="black">
<rect fill="white" x="22.6848" y="22.6075" width="27" height="22"/>
<path d="M31.4508 24.654C33.7942 24.7258 36.1074 25.2038 38.2874 26.0666C38.2874 26.0666 46.5891 29.2408 47.3042 35.6415C47.3082 36.0139 47.2008 36.3789 46.9956 36.6897C46.7905 37.0005 46.4971 37.2429 46.1531 37.3855C46.02 37.4042 45.885 37.4042 45.752 37.3855C45.3407 37.3954 44.9391 37.2595 44.6183 37.0018L44.5311 36.9146C43.6612 36.034 42.4892 35.5166 41.2523 35.4671C40.878 35.4567 40.5061 35.5313 40.1647 35.6854C39.8234 35.8394 39.5214 36.0689 39.2815 36.3565C38.8993 36.9563 38.6542 37.6331 38.5638 38.3386C38.4733 39.0441 38.5397 39.7608 38.7583 40.4376C38.8527 40.7229 38.889 41.0242 38.865 41.3238C38.8411 41.6233 38.7574 41.915 38.6188 42.1817C38.4196 42.3486 38.1886 42.4733 37.9398 42.5483C37.6909 42.6232 37.4295 42.6468 37.1712 42.6177C36.381 42.5996 35.5984 42.4584 34.8517 42.1991C33.9622 41.8154 26.1314 38.2576 24.9803 32.6592C24.7164 31.6756 24.6749 30.6456 24.8589 29.644C25.043 28.6424 25.4479 27.6944 26.0442 26.8689C26.7333 26.1227 27.5824 25.5421 28.5277 25.1706C29.4731 24.7991 30.4903 24.6463 31.5031 24.7237M36.2295 42.1642C36.6948 42.1974 37.1593 42.0905 37.5634 41.8574C37.9675 41.6243 38.2925 41.2756 38.4967 40.8562C38.6001 40.4989 38.6315 40.1247 38.589 39.7551C38.5466 39.3856 38.4311 39.0282 38.2494 38.7037C38.0677 38.3792 37.8233 38.094 37.5304 37.8647C37.2375 37.6354 36.902 37.4666 36.5434 37.3681C36.0522 37.1584 35.5251 37.0459 34.9912 37.0367C34.5259 37.0036 34.0613 37.1104 33.6572 37.3435C33.2532 37.5767 32.9281 37.9254 32.7239 38.3448C32.5886 38.6925 32.5448 39.0691 32.5967 39.4386C32.6486 39.8081 32.7945 40.1581 33.0204 40.4551C33.4388 41.0381 34.0131 41.4914 34.6772 41.7631C35.1684 41.9728 35.6955 42.0853 36.2295 42.0945M31.4508 23.6075C25.2594 23.6075 22.9223 27.9677 23.899 32.7987C25.1896 39.1645 33.9099 42.8793 34.3633 43.0886C35.2356 43.4079 36.1553 43.5788 37.084 43.5944C38.6711 43.5944 40.2408 42.9491 39.7001 40.2458C39.1595 37.5425 40.014 36.5135 41.1651 36.5135C42.1225 36.5893 43.0176 37.0182 43.6766 37.7169L43.8161 37.839C44.323 38.2797 44.9758 38.516 45.6473 38.5017C45.9332 38.5166 46.2189 38.469 46.4845 38.3622C47.0141 38.1255 47.4621 37.7378 47.7723 37.2476C48.0826 36.7574 48.2413 36.1866 48.2285 35.6066C47.4263 28.4211 38.5316 25.1423 38.5316 25.1423C36.2342 24.2362 33.7972 23.7347 31.3287 23.6599L31.4508 23.6075ZM36.1771 41.048C35.7816 41.0391 35.3912 40.9563 35.0261 40.8039C33.9796 40.3504 33.282 39.4261 33.6483 38.7459C33.7757 38.5219 33.9656 38.34 34.1948 38.2223C34.424 38.1046 34.6826 38.0562 34.9389 38.0832C35.3344 38.0921 35.7248 38.1749 36.0899 38.3273C37.1364 38.7808 37.834 39.7051 37.4852 40.3853C37.3548 40.6107 37.1618 40.7933 36.9296 40.911C36.6974 41.0286 36.4359 41.0763 36.1771 41.048Z"/>
</mask>
<path d="M31.4508 24.654C33.7942 24.7258 36.1074 25.2038 38.2874 26.0666C38.2874 26.0666 46.5891 29.2408 47.3042 35.6415C47.3082 36.0139 47.2008 36.3789 46.9956 36.6897C46.7905 37.0005 46.4971 37.2429 46.1531 37.3855C46.02 37.4042 45.885 37.4042 45.752 37.3855C45.3407 37.3954 44.9391 37.2595 44.6183 37.0018L44.5311 36.9146C43.6612 36.034 42.4892 35.5166 41.2523 35.4671C40.878 35.4567 40.5061 35.5313 40.1647 35.6854C39.8234 35.8394 39.5214 36.0689 39.2815 36.3565C38.8993 36.9563 38.6542 37.6331 38.5638 38.3386C38.4733 39.0441 38.5397 39.7608 38.7583 40.4376C38.8527 40.7229 38.889 41.0242 38.865 41.3238C38.8411 41.6233 38.7574 41.915 38.6188 42.1817C38.4196 42.3486 38.1886 42.4733 37.9398 42.5483C37.6909 42.6232 37.4295 42.6468 37.1712 42.6177C36.381 42.5996 35.5984 42.4584 34.8517 42.1991C33.9622 41.8154 26.1314 38.2576 24.9803 32.6592C24.7164 31.6756 24.6749 30.6456 24.8589 29.644C25.043 28.6424 25.4479 27.6944 26.0442 26.8689C26.7333 26.1227 27.5824 25.5421 28.5277 25.1706C29.4731 24.7991 30.4903 24.6463 31.5031 24.7237M36.2295 42.1642C36.6948 42.1974 37.1593 42.0905 37.5634 41.8574C37.9675 41.6243 38.2925 41.2756 38.4967 40.8562C38.6001 40.4989 38.6315 40.1247 38.589 39.7551C38.5466 39.3856 38.4311 39.0282 38.2494 38.7037C38.0677 38.3792 37.8233 38.094 37.5304 37.8647C37.2375 37.6354 36.902 37.4666 36.5434 37.3681C36.0522 37.1584 35.5251 37.0459 34.9912 37.0367C34.5259 37.0036 34.0613 37.1104 33.6572 37.3435C33.2532 37.5767 32.9281 37.9254 32.7239 38.3448C32.5886 38.6925 32.5448 39.0691 32.5967 39.4386C32.6486 39.8081 32.7945 40.1581 33.0204 40.4551C33.4388 41.0381 34.0131 41.4914 34.6772 41.7631C35.1684 41.9728 35.6955 42.0853 36.2295 42.0945M31.4508 23.6075C25.2594 23.6075 22.9223 27.9677 23.899 32.7987C25.1896 39.1645 33.9099 42.8793 34.3633 43.0886C35.2356 43.4079 36.1553 43.5788 37.084 43.5944C38.6711 43.5944 40.2408 42.9491 39.7001 40.2458C39.1595 37.5425 40.014 36.5135 41.1651 36.5135C42.1225 36.5893 43.0176 37.0182 43.6766 37.7169L43.8161 37.839C44.323 38.2797 44.9758 38.516 45.6473 38.5017C45.9332 38.5166 46.2189 38.469 46.4845 38.3622C47.0141 38.1255 47.4621 37.7378 47.7723 37.2476C48.0826 36.7574 48.2413 36.1866 48.2285 35.6066C47.4263 28.4211 38.5316 25.1423 38.5316 25.1423C36.2342 24.2362 33.7972 23.7347 31.3287 23.6599L31.4508 23.6075ZM36.1771 41.048C35.7816 41.0391 35.3912 40.9563 35.0261 40.8039C33.9796 40.3504 33.282 39.4261 33.6483 38.7459C33.7757 38.5219 33.9656 38.34 34.1948 38.2223C34.424 38.1046 34.6826 38.0562 34.9389 38.0832C35.3344 38.0921 35.7248 38.1749 36.0899 38.3273C37.1364 38.7808 37.834 39.7051 37.4852 40.3853C37.3548 40.6107 37.1618 40.7933 36.9296 40.911C36.6974 41.0286 36.4359 41.0763 36.1771 41.048Z" fill="#C99B69"/>
<path d="M38.2874 26.0666L38.1034 26.5316L38.1921 26.5666H38.2874V26.0666ZM47.3042 35.6415L47.8042 35.636L47.8039 35.6109L47.8011 35.586L47.3042 35.6415ZM46.1531 37.3855L46.2224 37.8807L46.2857 37.8719L46.3447 37.8474L46.1531 37.3855ZM45.752 37.3855L45.8213 36.8904L45.7808 36.8847L45.74 36.8857L45.752 37.3855ZM44.6183 37.0018L44.2648 37.3554L44.284 37.3747L44.3053 37.3917L44.6183 37.0018ZM44.5311 36.9146L44.1754 37.266L44.1776 37.2682L44.5311 36.9146ZM41.2523 35.4671L41.2723 34.9674L41.2662 34.9673L41.2523 35.4671ZM39.2815 36.3565L38.8976 36.0363L38.8771 36.0609L38.8599 36.0878L39.2815 36.3565ZM38.7583 40.4376L38.2825 40.5913L38.2836 40.5947L38.7583 40.4376ZM38.6188 42.1817L38.94 42.5649L39.0165 42.5008L39.0625 42.4122L38.6188 42.1817ZM37.1712 42.6177L37.2273 42.1208L37.2051 42.1183L37.1827 42.1178L37.1712 42.6177ZM34.8517 42.1991L34.6536 42.6582L34.6704 42.6655L34.6877 42.6715L34.8517 42.1991ZM24.9803 32.6592L25.4701 32.5585L25.4671 32.5439L25.4632 32.5296L24.9803 32.6592ZM26.0442 26.8689L25.6769 26.5297L25.6565 26.5518L25.6389 26.5761L26.0442 26.8689ZM38.4967 40.8562L38.9463 41.0751L38.9651 41.0365L38.977 40.9952L38.4967 40.8562ZM36.5434 37.3681L36.3471 37.8279L36.3782 37.8412L36.4109 37.8502L36.5434 37.3681ZM34.9912 37.0367L34.9556 37.5355L34.9691 37.5364L34.9826 37.5366L34.9912 37.0367ZM32.7239 38.3448L32.2744 38.1259L32.2654 38.1443L32.2579 38.1635L32.7239 38.3448ZM33.0204 40.4551L33.4268 40.1634L33.4184 40.1524L33.0204 40.4551ZM34.6772 41.7631L34.8736 41.3032L34.8666 41.3003L34.6772 41.7631ZM31.4508 23.6075L31.6477 24.0671L31.4508 23.1075V23.6075ZM23.899 32.7987L23.4089 32.8978L23.409 32.898L23.899 32.7987ZM34.3633 43.0886L34.1538 43.5426L34.1723 43.5511L34.1914 43.5581L34.3633 43.0886ZM37.084 43.5944L37.0757 44.0944H37.084V43.5944ZM41.1651 36.5135L41.2046 36.0151L41.1849 36.0135H41.1651V36.5135ZM43.6766 37.7169L43.3128 38.0599L43.3292 38.0774L43.3473 38.0932L43.6766 37.7169ZM43.8161 37.839L43.4868 38.2153L43.488 38.2163L43.8161 37.839ZM45.6473 38.5017L45.6733 38.0024L45.655 38.0015L45.6367 38.0018L45.6473 38.5017ZM46.4845 38.3622L46.6709 38.8261L46.6798 38.8226L46.6885 38.8187L46.4845 38.3622ZM48.2285 35.6066L48.7284 35.5956L48.7279 35.5733L48.7254 35.5511L48.2285 35.6066ZM38.5316 25.1423L38.3481 25.6075L38.3587 25.6114L38.5316 25.1423ZM31.3287 23.6599L31.1317 23.2003L31.3135 24.1596L31.3287 23.6599ZM36.1771 41.048L36.2313 40.551L36.2099 40.5487L36.1884 40.5482L36.1771 41.048ZM35.0261 40.8039L34.8272 41.2627L34.8334 41.2653L35.0261 40.8039ZM33.6483 38.7459L33.2136 38.4986L33.208 38.5088L33.6483 38.7459ZM34.9389 38.0832L34.8866 38.5804L34.907 38.5826L34.9276 38.583L34.9389 38.0832ZM36.0899 38.3273L36.2888 37.8685L36.2825 37.8659L36.0899 38.3273ZM37.4852 40.3853L37.918 40.6356L37.9243 40.6247L37.9301 40.6135L37.4852 40.3853ZM31.4354 25.1537C33.7211 25.2238 35.9772 25.69 38.1034 26.5316L38.4714 25.6017C36.2376 24.7176 33.8674 24.2279 31.4661 24.1542L31.4354 25.1537ZM38.2874 26.0666C38.1089 26.5337 38.1088 26.5336 38.1087 26.5336C38.1087 26.5336 38.1086 26.5336 38.1087 26.5336C38.1087 26.5336 38.1089 26.5337 38.1092 26.5338C38.1098 26.534 38.1109 26.5345 38.1125 26.5351C38.1157 26.5363 38.1208 26.5383 38.1279 26.5411C38.142 26.5467 38.1636 26.5553 38.1924 26.567C38.2499 26.5904 38.3358 26.6261 38.4462 26.6741C38.667 26.7701 38.9855 26.9151 39.3708 27.1092C40.1426 27.4979 41.1772 28.0805 42.2312 28.8565C44.3556 30.4204 46.4729 32.7043 46.8073 35.697L47.8011 35.586C47.4204 32.178 45.0293 29.6745 42.8241 28.0512C41.7134 27.2335 40.6278 26.6226 39.8206 26.2161C39.4165 26.0125 39.0809 25.8596 38.8449 25.757C38.7269 25.7057 38.6337 25.6669 38.5693 25.6407C38.5371 25.6276 38.512 25.6176 38.4947 25.6108C38.486 25.6074 38.4792 25.6047 38.4744 25.6029C38.472 25.6019 38.4701 25.6012 38.4687 25.6006C38.468 25.6004 38.4674 25.6002 38.467 25.6C38.4667 25.5999 38.4665 25.5998 38.4664 25.5998C38.4662 25.5997 38.466 25.5996 38.2874 26.0666ZM46.8042 35.6469C46.8072 35.9195 46.7285 36.1868 46.5783 36.4143L47.413 36.9652C47.673 36.5711 47.8093 36.1082 47.8042 35.636L46.8042 35.6469ZM46.5783 36.4143C46.4282 36.6418 46.2134 36.8192 45.9615 36.9237L46.3447 37.8474C46.7808 37.6665 47.1529 37.3592 47.413 36.9652L46.5783 36.4143ZM46.0838 36.8904C45.9967 36.9025 45.9084 36.9025 45.8213 36.8904L45.6827 37.8807C45.8617 37.9058 46.0434 37.9058 46.2224 37.8807L46.0838 36.8904ZM45.74 36.8857C45.4467 36.8927 45.1602 36.7957 44.9314 36.612L44.3053 37.3917C44.718 37.7232 45.2347 37.898 45.7639 37.8854L45.74 36.8857ZM44.9719 36.6483L44.8847 36.5611L44.1776 37.2682L44.2648 37.3554L44.9719 36.6483ZM44.8868 36.5633C43.9278 35.5924 42.6359 35.022 41.2723 34.9675L41.2323 35.9667C42.3426 36.0111 43.3945 36.4755 44.1754 37.266L44.8868 36.5633ZM41.2662 34.9673C40.8163 34.9548 40.3693 35.0445 39.9591 35.2296L40.3704 36.1411C40.6429 36.0182 40.9396 35.9586 41.2384 35.9669L41.2662 34.9673ZM39.9591 35.2296C39.5488 35.4148 39.1858 35.6906 38.8976 36.0363L39.6655 36.6768C39.857 36.4472 40.098 36.2641 40.3704 36.1411L39.9591 35.2296ZM38.8599 36.0878C38.4381 36.7497 38.1676 37.4965 38.0678 38.275L39.0597 38.4022C39.1408 37.7697 39.3605 37.163 39.7032 36.6253L38.8599 36.0878ZM38.0678 38.275C37.968 39.0535 38.0413 39.8444 38.2825 40.5913L39.2341 40.284C39.0382 39.6772 38.9786 39.0346 39.0597 38.4022L38.0678 38.275ZM38.2836 40.5947C38.3571 40.8166 38.3853 41.0509 38.3666 41.2839L39.3635 41.3636C39.3927 40.9975 39.3484 40.6293 39.233 40.2806L38.2836 40.5947ZM38.3666 41.2839C38.348 41.5169 38.2829 41.7438 38.1751 41.9511L39.0625 42.4122C39.2318 42.0863 39.3342 41.7298 39.3635 41.3636L38.3666 41.2839ZM38.2976 41.7985C38.1504 41.9219 37.9796 42.0141 37.7956 42.0695L38.084 43.027C38.3977 42.9326 38.6889 42.7753 38.94 42.5649L38.2976 41.7985ZM37.7956 42.0695C37.6116 42.1249 37.4183 42.1424 37.2273 42.1208L37.1151 43.1145C37.4407 43.1513 37.7703 43.1215 38.084 43.027L37.7956 42.0695ZM37.1827 42.1178C36.4444 42.1009 35.7133 41.969 35.0156 41.7268L34.6877 42.6715C35.4835 42.9477 36.3176 43.0983 37.1598 43.1176L37.1827 42.1178ZM35.0497 41.74C34.6224 41.5557 32.4811 40.588 30.3115 38.9827C28.125 37.3649 26.0072 35.1708 25.4701 32.5585L24.4906 32.7599C25.1045 35.746 27.4777 38.1299 29.7167 39.7866C31.9727 41.4558 34.1914 42.4588 34.6536 42.6582L35.0497 41.74ZM25.4632 32.5296C25.2185 31.6178 25.1801 30.6629 25.3507 29.7343L24.3672 29.5536C24.1697 30.6283 24.2142 31.7334 24.4974 32.7888L25.4632 32.5296ZM25.3507 29.7343C25.5213 28.8058 25.8967 27.927 26.4495 27.1617L25.6389 26.5761C24.999 27.4618 24.5646 28.479 24.3672 29.5536L25.3507 29.7343ZM26.4115 27.2081C27.0495 26.5173 27.8355 25.9798 28.7106 25.6359L28.3449 24.7052C27.3293 25.1043 26.4172 25.728 25.6769 26.5297L26.4115 27.2081ZM28.7106 25.6359C29.5858 25.292 30.5274 25.1506 31.465 25.2223L31.5412 24.2252C30.4532 24.142 29.3604 24.3061 28.3449 24.7052L28.7106 25.6359ZM36.1939 42.663C36.7588 42.7032 37.3227 42.5735 37.8133 42.2905L37.3135 41.4243C36.9959 41.6076 36.6307 41.6916 36.265 41.6655L36.1939 42.663ZM37.8133 42.2905C38.3038 42.0075 38.6984 41.5842 38.9463 41.0751L38.0472 40.6373C37.8867 40.967 37.6311 41.2411 37.3135 41.4243L37.8133 42.2905ZM38.977 40.9952C39.0988 40.5743 39.1358 40.1334 39.0858 39.6981L38.0923 39.8122C38.1272 40.1159 38.1014 40.4235 38.0164 40.7172L38.977 40.9952ZM39.0858 39.6981C39.0357 39.2628 38.8997 38.8417 38.6856 38.4594L37.8131 38.948C37.9625 39.2148 38.0574 39.5085 38.0923 39.8122L39.0858 39.6981ZM38.6856 38.4594C38.4715 38.0771 38.1836 37.7411 37.8386 37.471L37.2222 38.2584C37.4629 38.4469 37.6638 38.6813 37.8131 38.948L38.6856 38.4594ZM37.8386 37.471C37.4936 37.2009 37.0984 37.002 36.6759 36.886L36.4109 37.8502C36.7057 37.9312 36.9815 38.07 37.2222 38.2584L37.8386 37.471ZM36.7397 36.9083C36.1892 36.6732 35.5983 36.5471 34.9997 36.5368L34.9826 37.5366C35.452 37.5447 35.9153 37.6436 36.3471 37.8279L36.7397 36.9083ZM35.0267 36.538C34.4619 36.4977 33.8979 36.6275 33.4074 36.9105L33.9071 37.7766C34.2247 37.5934 34.5899 37.5094 34.9556 37.5355L35.0267 36.538ZM33.4074 36.9105C32.9169 37.1934 32.5223 37.6167 32.2744 38.1259L33.1735 38.5636C33.334 38.234 33.5895 37.9599 33.9071 37.7766L33.4074 36.9105ZM32.2579 38.1635C32.0916 38.5909 32.0378 39.0539 32.1016 39.5082L33.0919 39.369C33.0519 39.0843 33.0856 38.794 33.1899 38.5261L32.2579 38.1635ZM32.1016 39.5082C32.1654 39.9624 32.3447 40.3927 32.6224 40.7578L33.4184 40.1524C33.2443 39.9235 33.1319 39.6538 33.0919 39.369L32.1016 39.5082ZM32.6142 40.7466C33.0874 41.4059 33.7368 41.9186 34.4879 42.2259L34.8666 41.3003C34.2893 41.0642 33.7903 40.6702 33.4266 40.1635L32.6142 40.7466ZM34.4809 42.2229C35.0315 42.458 35.6224 42.5841 36.2209 42.5944L36.238 41.5945C35.7687 41.5865 35.3053 41.4876 34.8736 41.3033L34.4809 42.2229ZM31.4508 23.1075C28.232 23.1075 25.9329 24.2469 24.583 26.0967C23.2428 27.9332 22.9009 30.3847 23.4089 32.8978L24.3891 32.6996C23.9205 30.3816 24.2587 28.2375 25.3908 26.6862C26.5131 25.1482 28.4782 24.1075 31.4508 24.1075V23.1075ZM23.409 32.898C24.0923 36.2687 26.723 38.8842 29.1503 40.6562C31.5938 42.4399 33.9303 43.4394 34.1538 43.5426L34.5728 42.6346C34.3429 42.5285 32.0925 41.5659 29.7399 39.8485C27.3711 38.1192 24.9963 35.6945 24.389 32.6993L23.409 32.898ZM34.1914 43.5581C35.1162 43.8966 36.0911 44.0778 37.0757 44.0943L37.0924 43.0944C36.2194 43.0799 35.3551 42.9192 34.5352 42.6191L34.1914 43.5581ZM37.084 44.0944C37.9216 44.0944 38.8719 43.9284 39.5351 43.2955C40.2284 42.6341 40.4796 41.5936 40.1904 40.1477L39.2098 40.3438C39.4613 41.6012 39.198 42.2351 38.8448 42.5721C38.4617 42.9376 37.8336 43.0944 37.084 43.0944V44.0944ZM40.1904 40.1477C39.9289 38.8403 40.0278 38.0363 40.2477 37.5849C40.4462 37.1775 40.7626 37.0135 41.1651 37.0135V36.0135C40.4166 36.0135 39.7301 36.364 39.3487 37.1469C38.9888 37.8858 38.9307 38.948 39.2098 40.3438L40.1904 40.1477ZM41.1257 37.012C41.9595 37.0779 42.739 37.4514 43.3128 38.0599L44.0403 37.3739C43.2963 36.5849 42.2856 36.1006 41.2046 36.0151L41.1257 37.012ZM43.3473 38.0932L43.4868 38.2153L44.1453 37.4627L44.0058 37.3406L43.3473 38.0932ZM43.488 38.2163C44.0886 38.7386 44.8622 39.0185 45.658 39.0016L45.6367 38.0018C45.0894 38.0135 44.5573 37.8209 44.1442 37.4617L43.488 38.2163ZM45.6214 39.0011C45.9798 39.0197 46.338 38.96 46.6709 38.8261L46.298 37.8983C46.0998 37.9779 45.8866 38.0135 45.6733 38.0024L45.6214 39.0011ZM46.6885 38.8187C47.308 38.5418 47.8319 38.0883 48.1948 37.515L47.3498 36.9802C47.0922 37.3872 46.7202 37.7092 46.2805 37.9057L46.6885 38.8187ZM48.1948 37.515C48.5577 36.9416 48.7433 36.274 48.7284 35.5956L47.7286 35.6176C47.7392 36.0992 47.6075 36.5732 47.3498 36.9802L48.1948 37.515ZM48.7254 35.5511C48.3017 31.7561 45.747 29.0302 43.3764 27.2778C42.1849 26.397 41.0212 25.7479 40.156 25.3189C39.7229 25.1042 39.3632 24.9439 39.1104 24.8368C38.9839 24.7833 38.8841 24.7429 38.8151 24.7157C38.7806 24.7021 38.7538 24.6918 38.7352 24.6847C38.7259 24.6812 38.7187 24.6784 38.7135 24.6765C38.711 24.6755 38.7089 24.6748 38.7074 24.6742C38.7067 24.6739 38.7061 24.6737 38.7056 24.6735C38.7053 24.6734 38.7051 24.6733 38.705 24.6733C38.7047 24.6732 38.7045 24.6732 38.5316 25.1423C38.3587 25.6114 38.3585 25.6114 38.3585 25.6114C38.3585 25.6114 38.3584 25.6113 38.3584 25.6114C38.3585 25.6114 38.3587 25.6114 38.359 25.6116C38.3597 25.6118 38.3609 25.6123 38.3626 25.6129C38.366 25.6142 38.3715 25.6163 38.3791 25.6191C38.3942 25.6249 38.4174 25.6338 38.4483 25.646C38.5099 25.6703 38.602 25.7075 38.7203 25.7576C38.9571 25.8579 39.2985 26.0099 39.7118 26.2148C40.5394 26.6252 41.6496 27.2449 42.782 28.082C45.0593 29.7654 47.3531 32.2716 47.7316 35.6621L48.7254 35.5511ZM38.715 24.6772C36.3639 23.7499 33.87 23.2366 31.3438 23.1601L31.3135 24.1596C33.7244 24.2327 36.1044 24.7225 38.3482 25.6074L38.715 24.6772ZM31.5256 24.1194L31.6477 24.0671L31.2538 23.148L31.1317 23.2003L31.5256 24.1194ZM36.1884 40.5482C35.8552 40.5406 35.5263 40.4709 35.2187 40.3425L34.8334 41.2653C35.2561 41.4417 35.708 41.5376 36.1658 41.5479L36.1884 40.5482ZM35.2249 40.3451C34.7708 40.1483 34.415 39.8576 34.2178 39.5743C34.0171 39.2858 34.0291 39.0932 34.0885 38.9829L33.208 38.5088C32.9011 39.0788 33.0789 39.6884 33.397 40.1455C33.7187 40.6078 34.2349 41.006 34.8273 41.2627L35.2249 40.3451ZM34.0828 38.9932C34.1622 38.8537 34.2805 38.7404 34.4232 38.6671L33.9664 37.7775C33.6508 37.9396 33.3892 38.1902 33.2137 38.4986L34.0828 38.9932ZM34.4232 38.6671C34.566 38.5938 34.727 38.5636 34.8866 38.5804L34.9911 37.5859C34.6382 37.5488 34.2821 37.6154 33.9664 37.7775L34.4232 38.6671ZM34.9276 38.583C35.2608 38.5906 35.5897 38.6603 35.8973 38.7887L36.2825 37.8659C35.8599 37.6895 35.408 37.5936 34.9502 37.5833L34.9276 38.583ZM35.8911 38.7861C36.3449 38.9827 36.7016 39.2737 36.9015 39.5585C37.1059 39.8498 37.0969 40.0467 37.0403 40.1571L37.9301 40.6135C38.2223 40.0437 38.0389 39.4384 37.72 38.9841C37.3967 38.5233 36.8814 38.1254 36.2887 37.8685L35.8911 38.7861ZM37.0523 40.135C36.9705 40.2765 36.8494 40.3911 36.7036 40.4649L37.1556 41.357C37.4743 41.1955 37.7392 40.9449 37.918 40.6356L37.0523 40.135ZM36.7036 40.4649C36.5578 40.5388 36.3938 40.5687 36.2313 40.551L36.123 41.5451C36.4781 41.5838 36.8369 41.5184 37.1556 41.357L36.7036 40.4649Z" fill="#C99B69" mask="url(#path-3-outside-2_7918_1152)"/>
<path d="M29.5325 29.3513C30.4989 29.3513 31.2824 28.5678 31.2824 27.6014C31.2824 26.635 30.4989 25.8515 29.5325 25.8515C28.566 25.8515 27.7826 26.635 27.7826 27.6014C27.7826 28.5678 28.566 29.3513 29.5325 29.3513Z" fill="#C99B69" stroke="#C99B69" stroke-width="0.5"/>
<path d="M34.8867 28.985C35.8532 28.985 36.6366 28.2016 36.6366 27.2352C36.6366 26.2687 35.8532 25.4853 34.8867 25.4853C33.9203 25.4853 33.1368 26.2687 33.1368 27.2352C33.1368 28.2016 33.9203 28.985 34.8867 28.985Z" fill="#C99B69" stroke="#C99B69" stroke-width="0.5"/>
<path d="M39.8745 30.8512C40.8409 30.8512 41.6244 30.0677 41.6244 29.1013C41.6244 28.1349 40.841 27.3514 39.8745 27.3514C38.9081 27.3514 38.1246 28.1349 38.1246 29.1013C38.1246 30.0677 38.9081 30.8512 39.8745 30.8512Z" fill="#C99B69" stroke="#C99B69" stroke-width="0.5"/>
</svg>
